<?xml version="1.0" encoding="utf-8"?><svg width="71" height="63" viewBox="0 0 71 63" xmlns="http://www.w3.org/2000/svg" xmlns:xlink="http://www.w3.org/1999/xlink"><svg width="14" height="14" viewBox="0 0 14 14" id=".cbir-intent__close" x="50" y="24"><path d="M14 .7l-.7-.7L7 6.3.7 0 0 .7 6.3 7 0 13.3l.7.7L7 7.7l6.3 6.3.7-.7L7.7 7z"/></svg><svg width="22" height="22" viewBox="0 0 22 22" id=".cbir-panel__close-icon" x="21" y="39"><path d="M22 1.1L20.9 0 11 9.898 1.1 0 0 1.1 9.9 11 0 20.898 1.1 22l9.9-9.9 9.9 9.9 1.1-1.102L12.1 11 22 1.1z"/></svg><svg width="16" height="16" viewBox="0 0 16 16" id=".complain2_icon-theme_outlined.complain2_color_black.complain2_layout_icon .button2__icon,.complain2_icon-theme_outlined.complain2_color_black.complain2_layout_button .button2__icon" x="43" y="39"><path fill-rule="evenodd" d="M8 16A8 8 0 1 0 8 0a8 8 0 0 0 0 16zm0-1.8A6.2 6.2 0 1 0 8 1.8a6.2 6.2 0 0 0 0 12.4zM7 11c0-.552.444-1 1-1 .552 0 1 .444 1 1 0 .552-.444 1-1 1-.552 0-1-.444-1-1zm.058-6.036A.908.908 0 0 1 7.978 4h.045c.54 0 .95.426.92.964l-.2 3.34A.751.751 0 0 1 8 9a.751.751 0 0 1-.742-.695l-.2-3.34z"/></svg><svg width="20" height="27" viewBox="0 0 20 27" id=".head-filter_type_family .head-filter__icon" x="30"><path d="M9.805 20.08s1.465 0 2.196 1.714l1.65 3.087c.34.737 1.23 1.07 1.975.72a1.481 1.481 0 0 0 .718-1.973l-1.528-2.833c-.762-1.6-.762-1.976-.762-3.978v-1.94s0-1.956 1.575-3.285l2.64-2.64a1.5 1.5 0 0 0 0-2.112 1.49 1.49 0 0 0-2.112.002L13.06 9.935c-1.13 1.144-2.82 1.144-2.82 1.144H8.863s-1.69 0-2.82-1.146L2.947 6.84a1.49 1.49 0 0 0-2.113-.003A1.5 1.5 0 0 0 .836 8.95l2.64 2.64c1.574 1.328 1.574 3.284 1.574 3.284v1.94c0 2.002 0 2.38-.762 3.978l-1.53 2.833a1.483 1.483 0 0 0 .72 1.975c.742.347 1.63.015 1.973-.72l1.65-3.086c.73-1.713 2.197-1.713 2.197-1.713h.51zm-4.755-15a4.5 4.5 0 1 0 9 0 4.5 4.5 0 0 0-9 0z"/></svg><svg width="21" height="24" viewBox="0 0 21 24" id=".head-filter_type_moderate .head-filter__icon" x="50"><path d="M10.505 24C.735 20.04.055 12.776.01 6.008L0 3c9.107 0 9.082-1.796 10.5-3 1.534 1.204 1.54 3 10.5 3v3.008c-.05 6.77-.73 14.033-10.494 17.992zm0-2.2c-7.31-3.217-8.46-8.82-8.498-14.32L2 5c5.372 0 7.75-1.422 8.5-2.4.74.978 3.245 2.4 8.5 2.4v2.48c-.04 5.5-1.19 11.103-8.496 14.32zM6.1 9.9L5 11.775 10.177 17l6.136-8.267L14.983 7l-5.03 6.878L6.1 9.9z" fill-rule="evenodd"/></svg><svg width="21" height="24" viewBox="0 0 21 24" id=".head-filter_type_unlimited .head-filter__icon" y="39"><path d="M10.505 24C.735 20.04.055 12.776.01 6.008L0 3c9.107 0 9.082-1.796 10.5-3 1.534 1.204 1.54 3 10.5 3v3.008c-.05 6.77-.73 14.033-10.494 17.992zm6.24-19.096L13 9h5L7.5 18l3.75-7.5H7.5l4.568-6.74c-.79-.385-1.297-.802-1.568-1.16C9.75 3.578 7.372 5 2 5l.007 2.48c.038 5.5 1.188 11.103 8.497 14.32C17.81 18.583 18.96 12.98 19 7.48V5c-.817 0-1.567-.034-2.254-.096z"/></svg><svg width="30" height="39" viewBox="0 0 30 39" id=".popup_filter_unlimited .popup__content-icon"><path fill="#FF972B" d="M23.57 4C18.84 4 15 2.392 15 0c0 2.392-3.837 4-8.572 4H0v17.67C0 30.33 15 39 15 39s15-8.67 15-17.33V4h-6.43zM17 31h-4v-4h4v4zm0-7h-4V10h4v14z"/></svg></svg>