<svg xmlns="http://www.w3.org/2000/svg" xmlns:xlink="http://www.w3.org/1999/xlink" width="22" height="22"><defs><path id="a" d="M0 0h16v16H0z"/></defs><g fill="none" fill-rule="evenodd"><path fill="#FC0" d="M17.56 6h-7.11A4.45 4.45 0 0 0 6 10.44v7.12A4.45 4.45 0 0 0 10.45 22h7.1A4.44 4.44 0 0 0 22 17.56v-7.12A4.44 4.44 0 0 0 17.56 6"/><path fill="#FF7B00" d="M14.56 3H7.44A4.45 4.45 0 0 0 3 7.44v7.12A4.45 4.45 0 0 0 7.45 19h7.1A4.44 4.44 0 0 0 19 14.56V7.44A4.44 4.44 0 0 0 14.56 3"/><mask id="b" fill="#fff"><use xlink:href="#a"/></mask><path fill="#4233FF" d="M11.56 0H4.44A4.45 4.45 0 0 0 0 4.44v7.12A4.45 4.45 0 0 0 4.45 16h7.1A4.44 4.44 0 0 0 16 11.56V4.44A4.44 4.44 0 0 0 11.56 0" mask="url(#b)"/><path stroke="#FFF" stroke-width="2" d="M8 3v10m5-5H3"/></g></svg>
