<svg xmlns="http://www.w3.org/2000/svg" width="93" height="60"><g fill="none"><path fill="#027BF3" d="M19.67 38.854L5.32 49.72C3.154 51.24.164 49.699.164 47.06V2.629c0-1.227.999-2.22 2.23-2.22h37.124c1.232 0 2.23.993 2.23 2.22v46.427c0 1.801-2.04 2.853-3.518 1.814L22.243 38.854a2.24 2.24 0 0 0-2.574 0zm57.362-.568l-9.838 8.587c-.909.794-2.338.237-2.464-.96l-3.242-30.849a1.487 1.487 0 0 1 1.327-1.632l24.667-2.592a1.487 1.487 0 0 1 1.637 1.32l3.243 30.85c.126 1.196-1.157 2.037-2.211 1.45l-11.408-6.354a1.498 1.498 0 0 0-1.71.18z"/><path fill="#00E6C5" d="M76.51 33.813a9.455 9.455 0 0 1-6.113-2.208c-1.871-1.575-2.987-3.757-3.14-6.145-.318-4.924 3.601-9.195 8.736-9.523 5.129-.333 9.57 3.41 9.888 8.334.153 2.388-.673 4.695-2.327 6.494-1.65 1.795-3.926 2.87-6.41 3.028-.211.013-.423.02-.634.02zm-8.332-8.412c.138 2.136 1.138 4.09 2.815 5.501 1.684 1.416 3.843 2.113 6.092 1.974 2.245-.144 4.3-1.114 5.788-2.732 1.483-1.613 2.224-3.678 2.087-5.815-.284-4.417-4.28-7.777-8.907-7.475-4.626.295-8.16 4.13-7.875 8.547z"/><path fill="#00E6C5" d="M74.685 28.575a.883.883 0 0 1-.879-.937l.41-5.993a.881.881 0 0 1 1.413-.637l4.35 3.31a.874.874 0 0 1-.102 1.46L75.12 28.46a.877.877 0 0 1-.434.115zm.206-.515h.006-.006zm.242-6.273l-.4 5.834 4.633-2.611-4.233-3.223zm-56.23 7.93c-.313 0-.628-.064-.929-.195L6.693 24.924a2.62 2.62 0 0 1-1.442-3.403l4.035-9.947a.537.537 0 0 1 .077-.191l.617-1.52a1.67 1.67 0 0 0-.007-1.3 1.676 1.676 0 0 0-.933-.906L3.772 5.58a.555.555 0 1 1 .412-1.033L9.45 6.625A2.785 2.785 0 0 1 11 8.128c.295.693.3 1.458.014 2.155l-.446 1.1 15.23 6.237a2.29 2.29 0 0 1 1.357 1.541 2.277 2.277 0 0 1-.413 2.007l-6.016 7.663a2.32 2.32 0 0 1-1.823.886zM10.15 12.413l-3.864 9.524a1.508 1.508 0 0 0 .83 1.96L18.411 28.5a1.205 1.205 0 0 0 1.436-.353l6.015-7.663a1.18 1.18 0 0 0 .214-1.039 1.185 1.185 0 0 0-.701-.797L10.15 12.413zM7.004 32.214a2.733 2.733 0 0 1-1.76-.64 2.714 2.714 0 0 1-.973-1.856 2.71 2.71 0 0 1 .632-1.998 2.73 2.73 0 0 1 1.864-.967 2.736 2.736 0 0 1 2.007.629c.562.47.908 1.129.972 1.857a2.705 2.705 0 0 1-.631 1.996 2.734 2.734 0 0 1-2.111.98zm.007-4.36a1.624 1.624 0 1 0 .141 3.244 1.628 1.628 0 0 0 1.484-1.761 1.626 1.626 0 0 0-1.624-1.483zm-1.68.223h.007-.007zm8.935 7.244a2.746 2.746 0 0 1-1.763-.637 2.73 2.73 0 0 1-.34-3.854 2.734 2.734 0 0 1 1.864-.969 2.74 2.74 0 0 1 2.006.63c.563.469.908 1.128.973 1.856a2.707 2.707 0 0 1-.632 1.997 2.748 2.748 0 0 1-2.108.977zm.005-4.36a1.628 1.628 0 0 0-1.254.581 1.623 1.623 0 0 0 .202 2.29c.334.278.756.414 1.192.373a1.62 1.62 0 0 0 1.107-.574c.28-.333.413-.755.375-1.187a1.609 1.609 0 0 0-.577-1.102 1.62 1.62 0 0 0-1.045-.381zm-1.682.225h.008-.008z"/><path fill="#FC0" d="M64.119 4.804l9.58 40.545c.665 2.82-1.107 5.67-3.947 6.335l-34.887 8.172c-2.833.663-5.696-1.102-6.362-3.922l-9.58-40.545c-.666-2.82 1.106-5.67 3.939-6.334L57.749.885c2.84-.666 5.704 1.099 6.37 3.919z"/><path fill="#002669" d="M70.443 31.584l2.355 9.966-45.196 10.586-2.675-11.324L33.7 28.874a3.522 3.522 0 0 1 4.66-.92l10.315 6.309a2.685 2.685 0 0 0 3.558-.692l4.515-6.155a3.517 3.517 0 0 1 4.55-.98l9.145 5.148z"/><path fill="#FF3756" d="M71.998 38.151l1.7 7.198c.666 2.82-1.106 5.67-3.946 6.335l-34.887 8.172c-2.833.663-5.696-1.102-6.362-3.922l-1.701-7.198 45.196-10.585z"/><path fill="#FFF" d="M32.812 52.467a.572.572 0 0 1-.13-1.129l35.308-8.27a.571.571 0 1 1 .263 1.113l-35.31 8.27a.58.58 0 0 1-.131.016zm.934 3.957a.572.572 0 0 1-.13-1.129l13.741-3.218a.57.57 0 1 1 .263 1.113l-13.74 3.218a.545.545 0 0 1-.133.016zm16.49-3.862a.573.573 0 0 1-.131-1.129l10.108-2.367a.571.571 0 1 1 .264 1.113l-10.109 2.367a.54.54 0 0 1-.132.016z"/><path fill="#002669" d="M29.979 18.336a5.162 5.162 0 0 1 .35-6.54c.177-.193.018-.503-.24-.459a6.328 6.328 0 0 0-2.604 1.09 6.18 6.18 0 0 0-1.45 8.645l.041.056c2.043 2.786 5.986 3.41 8.81 1.391a6.207 6.207 0 0 0 1.862-2.106c.123-.228-.119-.477-.356-.372a5.314 5.314 0 0 1-6.413-1.705z"/></g></svg>