<svg width="16" height="16" xmlns="http://www.w3.org/2000/svg"><g fill="none" fill-rule="evenodd" opacity=".4"><path d="M15.297 3.797c.388.388.703 1.14.703 1.706v4.994c0 .554-.324 1.327-.703 1.706l-3.094 3.094c-.388.388-1.14.703-1.706.703H5.503c-.554 0-1.327-.324-1.706-.703L.703 12.203C.315 11.815 0 11.063 0 10.497V5.503c0-.554.324-1.327.703-1.706L3.797.703C4.185.315 4.937 0 5.503 0h4.994c.554 0 1.327.324 1.706.703l3.094 3.094z" fill="#BBB"/><path d="M9.25 12a1.25 1.25 0 1 1-2.5 0 1.25 1.25 0 0 1 2.5 0zM7 3h2v6H7V3z" fill="#000"/></g></svg>